<svg xmlns="http://www.w3.org/2000/svg" viewBox="0 0 180 180" width="100%" height="100%">
  <!-- Icon Background -->
  <rect width="180" height="180" rx="40" fill="#edbbac"/>

  <!-- Centered and scaled-up logo elements -->
  <g transform="translate(-13.5, 22.15) scale(1.15)" fill="none">
    
    <!-- Element 1: Sigma / Zigzag -->
    <path d="M 35 35 L 15 35 L 30 55 L 15 75 L 35 75" stroke="#2a2d2c" stroke-width="4" stroke-linejoin="miter" stroke-linecap="square"/>

    <!-- Element 2: Atom -->
    <g transform="translate(65, 55)">
      <ellipse cx="0" cy="0" rx="12" ry="24" transform="rotate(30)" stroke="#2a2d2c" stroke-width="3"/>
      <ellipse cx="0" cy="0" rx="12" ry="24" transform="rotate(-30)" stroke="#2a2d2c" stroke-width="3"/>
      <ellipse cx="0" cy="0" rx="12" ry="24" transform="rotate(90)" stroke="#2a2d2c" stroke-width="3"/>
      <circle cx="0" cy="0" r="4" fill="#d95c32"/>
      <circle cx="-15" cy="-12" r="3" fill="#d95c32"/>
      <circle cx="15" cy="12" r="3" fill="#d95c32"/>
      <circle cx="12" cy="-15" r="3" fill="#d95c32"/>
      <circle cx="-12" cy="15" r="3" fill="#d95c32"/>
    </g>

    <!-- Element 3: Crown / M -->
    <g transform="translate(105, 35)">
      <path d="M 0 0 L 5 18 L 15 8 L 25 18 L 30 0 L 30 22 L 0 22 Z" stroke="#2a2d2c" stroke-width="3" stroke-linejoin="miter" stroke-linecap="square"/>
      <line x1="0" y1="28" x2="30" y2="28" stroke="#2a2d2c" stroke-width="3" stroke-linecap="square"/>
    </g>

    <!-- Element 4: Planet -->
    <g transform="translate(120, 75)">
      <circle cx="0" cy="0" r="12" fill="#2a2d2c"/>
      <ellipse cx="0" cy="0" rx="20" ry="5" transform="rotate(-20)" stroke="#d95c32" stroke-width="3"/>
    </g>

    <!-- Element 5: Sword -->
    <g transform="translate(155, 55)">
      <path d="M -3 -5 L 3 -5 L 3 18 L 0 26 L -3 18 Z" stroke="#d95c32" stroke-width="3" stroke-linejoin="miter"/>
      <line x1="-10" y1="-5" x2="10" y2="-5" stroke="#d95c32" stroke-width="3" stroke-linecap="square"/>
      <line x1="0" y1="-5" x2="0" y2="-18" stroke="#2a2d2c" stroke-width="3"/>
      <circle cx="0" cy="-20" r="3" fill="#2a2d2c"/>
    </g>
    
  </g>
</svg>