<svg xmlns="http://www.w3.org/2000/svg" viewBox="0 0 180 180" width="100%" height="100%">
  <!-- Icon Background -->
  <rect width="180" height="180" rx="40" fill="#edbbac"/>

  <!-- Compacted and scaled-down logo elements centered for favicons -->
  <g transform="translate(44, 52) scale(0.65)" fill="none">
    
    <!-- Element 1: Sigma / Zigzag -->
    <!-- Shifted right and narrowed the gap -->
    <path d="M 20 35 L 0 35 L 15 55 L 0 75 L 20 75" stroke="#2a2d2c" stroke-width="5" stroke-linejoin="miter" stroke-linecap="square"/>

    <!-- Element 2: Atom -->
    <!-- Brought closer to the sigma -->
    <g transform="translate(52, 55)">
      <ellipse cx="0" cy="0" rx="12" ry="24" transform="rotate(30)" stroke="#2a2d2c" stroke-width="4"/>
      <ellipse cx="0" cy="0" rx="12" ry="24" transform="rotate(-30)" stroke="#2a2d2c" stroke-width="4"/>
      <ellipse cx="0" cy="0" rx="12" ry="24" transform="rotate(90)" stroke="#2a2d2c" stroke-width="4"/>
      <circle cx="0" cy="0" r="4" fill="#d95c32"/>
      <circle cx="-15" cy="-12" r="3.5" fill="#d95c32"/>
      <circle cx="15" cy="12" r="3.5" fill="#d95c32"/>
      <circle cx="12" cy="-15" r="3.5" fill="#d95c32"/>
      <circle cx="-12" cy="15" r="3.5" fill="#d95c32"/>
    </g>

    <!-- Element 3: Crown / M -->
    <!-- Pulled left to close the gap from the atom -->
    <g transform="translate(84, 35)">
      <path d="M 0 0 L 5 18 L 15 8 L 25 18 L 30 0 L 30 22 L 0 22 Z" stroke="#2a2d2c" stroke-width="4" stroke-linejoin="miter" stroke-linecap="square"/>
      <line x1="0" y1="28" x2="30" y2="28" stroke="#2a2d2c" stroke-width="4" stroke-linecap="square"/>
    </g>

    <!-- Element 4: Planet -->
    <!-- Perfectly aligned centrally under the crown -->
    <g transform="translate(99, 75)">
      <circle cx="0" cy="0" r="12" fill="#2a2d2c"/>
      <ellipse cx="0" cy="0" rx="20" ry="5" transform="rotate(-20)" stroke="#d95c32" stroke-width="4"/>
    </g>

    <!-- Element 5: Sword -->
    <!-- Tucked neatly right next to the planet -->
    <g transform="translate(131, 55)">
      <path d="M -3 -5 L 3 -5 L 3 18 L 0 26 L -3 18 Z" stroke="#d95c32" stroke-width="4" stroke-linejoin="miter"/>
      <line x1="-10" y1="-5" x2="10" y2="-5" stroke="#d95c32" stroke-width="4" stroke-linecap="square"/>
      <line x1="0" y1="-5" x2="0" y2="-18" stroke="#2a2d2c" stroke-width="4"/>
      <circle cx="0" cy="-20" r="3.5" fill="#2a2d2c"/>
    </g>
    
  </g>
</svg>
